<svg id="visual" viewBox="0 0 900 150" width="900" height="150" xmlns="http://www.w3.org/2000/svg" xmlns:xlink="http://www.w3.org/1999/xlink" version="1.1"><path d="M0 142L4.8 140.8C9.7 139.7 19.3 137.3 29 134.7C38.7 132 48.3 129 58 128.7C67.7 128.3 77.3 130.7 87 132.5C96.7 134.3 106.3 135.7 116 134.8C125.7 134 135.3 131 145 128.5C154.7 126 164.3 124 174 123.5C183.7 123 193.3 124 203 126C212.7 128 222.3 131 232 132.5C241.7 134 251.3 134 261 134C270.7 134 280.3 134 290 133.7C299.7 133.3 309.3 132.7 319 131.3C328.7 130 338.3 128 348 127.3C357.7 126.7 367.3 127.3 377 128.8C386.7 130.3 396.3 132.7 406 133.5C415.7 134.3 425.3 133.7 435.2 131.2C445 128.7 455 124.3 464.8 126C474.7 127.7 484.3 135.3 494 135.2C503.7 135 513.3 127 523 124.7C532.7 122.3 542.3 125.7 552 126C561.7 126.3 571.3 123.7 581 123.3C590.7 123 600.3 125 610 127.8C619.7 130.7 629.3 134.3 639 133.3C648.7 132.3 658.3 126.7 668 127C677.7 127.3 687.3 133.7 697 133.8C706.7 134 716.3 128 726 125.8C735.7 123.7 745.3 125.3 755 125.7C764.7 126 774.3 125 784 123.8C793.7 122.7 803.3 121.3 813 125.2C822.7 129 832.3 138 842 138.5C851.7 139 861.3 131 871 127.3C880.7 123.7 890.3 124.3 895.2 124.7L900 125L900 151L895.2 151C890.3 151 880.7 151 871 151C861.3 151 851.7 151 842 151C832.3 151 822.7 151 813 151C803.3 151 793.7 151 784 151C774.3 151 764.7 151 755 151C745.3 151 735.7 151 726 151C716.3 151 706.7 151 697 151C687.3 151 677.7 151 668 151C658.3 151 648.7 151 639 151C629.3 151 619.7 151 610 151C600.3 151 590.7 151 581 151C571.3 151 561.7 151 552 151C542.3 151 532.7 151 523 151C513.3 151 503.7 151 494 151C484.3 151 474.7 151 464.8 151C455 151 445 151 435.2 151C425.3 151 415.7 151 406 151C396.3 151 386.7 151 377 151C367.3 151 357.7 151 348 151C338.3 151 328.7 151 319 151C309.3 151 299.7 151 290 151C280.3 151 270.7 151 261 151C251.3 151 241.7 151 232 151C222.3 151 212.7 151 203 151C193.3 151 183.7 151 174 151C164.3 151 154.7 151 145 151C135.3 151 125.7 151 116 151C106.3 151 96.7 151 87 151C77.3 151 67.7 151 58 151C48.3 151 38.7 151 29 151C19.3 151 9.7 151 4.8 151L0 151Z" fill="#FFF" stroke-linecap="round" stroke-linejoin="miter"></path></svg>